<?xml version="1.0" standalone="no"?>
<!DOCTYPE svg PUBLIC "-//W3C//DTD SVG 20010904//EN"
 "http://www.w3.org/TR/2001/REC-SVG-20010904/DTD/svg10.dtd">
<svg version="1.0" xmlns="http://www.w3.org/2000/svg"
 width="800.000000pt" height="800.000000pt" viewBox="0 0 800.000000 800.000000"
 preserveAspectRatio="xMidYMid meet">
<metadata>
Created by potrace 1.14, written by Peter Selinger 2001-2017
</metadata>
<g transform="translate(0.000000,800.000000) scale(0.100000,-0.100000)"
fill="#000000" stroke="none">
<path d="M0 4000 l0 -4000 208 0 207 0 30 48 c16 26 62 90 100 142 39 52 74
101 79 108 4 7 -37 -16 -91 -52 -54 -35 -132 -82 -173 -104 -84 -45 -230 -105
-237 -98 -3 3 10 24 30 48 69 86 267 391 267 412 0 3 -41 6 -91 6 l-92 0 51
54 c28 29 72 86 98 126 74 115 208 410 185 410 -6 0 -456 -131 -533 -156 -22
-7 -14 14 144 336 118 242 120 246 129 340 12 123 43 287 75 396 13 48 23 88
21 90 -3 3 -109 -57 -326 -183 l-43 -25 80 103 c44 57 114 157 156 221 84 129
247 410 241 416 -2 2 -115 -55 -252 -126 -136 -72 -250 -128 -252 -127 -6 6
77 155 136 244 81 122 163 220 297 358 81 84 113 123 100 123 -10 0 -131 -9
-269 -20 -137 -10 -251 -17 -253 -16 -6 7 90 182 135 246 67 95 235 257 335
323 47 32 103 78 123 102 20 25 73 81 117 125 73 73 78 80 56 84 -13 3 -162
26 -333 51 -171 25 -314 47 -320 49 -5 1 28 15 75 31 264 86 834 314 983 392
l52 28 -450 5 -450 5 80 51 c169 108 392 220 605 304 47 18 89 36 93 40 7 6
-545 192 -920 311 -40 13 -71 24 -69 26 2 2 160 15 352 28 524 38 1519 131
1639 153 39 8 -187 55 -1407 294 -93 18 -168 35 -168 39 0 8 287 64 485 94
225 34 400 53 618 67 103 7 187 15 187 18 0 3 -234 118 -520 255 -601 289
-575 258 -225 269 231 7 595 -6 835 -29 596 -59 1141 -192 1672 -410 14 -6 21
8 44 81 l27 88 -34 29 c-82 70 -316 215 -478 296 -434 217 -940 371 -1541 470
-189 32 -475 70 -533 72 -28 1 -26 2 13 10 170 31 870 49 1155 30 442 -30 786
-93 1112 -205 123 -42 307 -120 356 -150 12 -7 48 -27 79 -45 l58 -31 50 100
c57 113 161 291 213 364 l35 49 25 -49 c49 -97 112 -252 167 -412 l56 -162 84
112 c46 62 140 169 209 238 121 121 317 280 345 280 25 0 90 -215 120 -395 31
-189 39 -289 45 -583 l6 -303 63 -35 c34 -19 62 -33 62 -30 0 3 -27 20 -60 38
-33 18 -60 35 -60 38 0 10 1034 780 1047 780 10 0 433 -423 433 -432 0 -4
-140 -195 -310 -423 l-311 -416 -74 41 c-41 22 -75 38 -75 36 0 -3 29 -21 65
-41 41 -23 63 -41 58 -48 -6 -10 -342 -461 -375 -504 -22 -28 582 -669 1597
-1692 341 -345 636 -646 656 -671 54 -67 62 -97 57 -198 -6 -105 -28 -176
-108 -337 -71 -144 -183 -319 -328 -511 l-107 -141 -70 -17 c-98 -23 -247 -98
-400 -199 -112 -75 -135 -87 -172 -87 -69 0 -166 43 -368 165 -288 172 -562
266 -950 325 -354 53 -611 132 -899 277 -234 118 -409 279 -502 463 -45 90
-72 167 -80 232 -9 69 -20 46 -43 -94 -28 -164 -34 -304 -21 -458 33 -387 156
-776 384 -1216 126 -242 349 -589 454 -706 l44 -48 1589 0 1589 0 0 4000 0
4000 -4000 0 -4000 0 0 -4000z m7787 3718 c-347 -466 -371 -498 -378 -490 -4
4 -34 59 -68 122 l-60 116 352 261 c194 144 353 262 354 262 2 1 -89 -122
-200 -271z m-448 -400 l62 -116 -174 -234 c-95 -128 -244 -330 -331 -448 -87
-118 -162 -219 -167 -225 -6 -6 -89 71 -224 205 -118 118 -215 218 -215 221 0
4 109 87 243 185 133 98 352 261 486 361 135 101 248 180 252 176 4 -5 35 -60
68 -125z"/>
<path d="M5380 5816 c0 -2 7 -7 16 -10 8 -3 12 -2 9 4 -6 10 -25 14 -25 6z"/>
<path d="M5860 5546 c0 -3 9 -10 20 -16 11 -6 20 -8 20 -6 0 3 -9 10 -20 16
-11 6 -20 8 -20 6z"/>
<path d="M4531 4019 l-22 -9 26 -48 c62 -115 152 -198 330 -307 134 -82 186
-130 219 -205 27 -60 49 -179 40 -220 -4 -19 0 -16 20 15 44 68 69 144 70 217
0 38 5 68 9 68 25 0 115 -58 161 -105 53 -53 115 -161 130 -229 7 -27 8 -28
26 -11 11 10 31 40 45 68 34 68 34 159 1 239 l-23 57 31 -6 c89 -17 202 -114
267 -228 l33 -59 18 54 c31 101 18 220 -34 293 -29 41 -13 52 51 38 29 -6 70
-20 92 -32 23 -11 43 -19 45 -16 2 2 -14 28 -35 58 -96 135 -242 175 -434 120
-310 -89 -698 -4 -988 214 -44 34 -60 40 -78 34z"/>
</g>
</svg>
